<svg width="328" height="193" viewBox="0 0 328 193" fill="none" xmlns="http://www.w3.org/2000/svg">
<rect width="328" height="193" fill="url(#paint0_linear_1_5293)"/>
<path d="M295.616 147.843H345.124C346.135 147.843 347.104 148.244 347.818 148.958C348.532 149.673 348.934 150.642 348.934 151.652C348.934 152.662 348.532 153.631 347.818 154.345C347.104 155.06 346.135 155.461 345.124 155.461H295.616V147.843Z" fill="#0077D9"/>
<path opacity="0.6" d="M295.616 147.843H345.124C346.135 147.843 347.104 148.244 347.818 148.958C348.532 149.673 348.934 150.642 348.934 151.652C348.934 152.662 348.532 153.631 347.818 154.345C347.104 155.06 346.135 155.461 345.124 155.461H295.616V147.843Z" fill="white"/>
<path d="M300.884 124.855H348.192L343.659 147.843H305.411L300.884 124.855Z" fill="#263238"/>
<path d="M299.563 122.649H349.508C349.618 122.648 349.726 122.673 349.825 122.722C349.923 122.771 350.009 122.842 350.075 122.929C350.141 123.017 350.186 123.119 350.206 123.227C350.226 123.335 350.22 123.446 350.19 123.552L349.592 125.591C349.548 125.738 349.458 125.867 349.335 125.958C349.212 126.05 349.063 126.099 348.91 126.099H300.155C300.002 126.099 299.853 126.05 299.73 125.958C299.607 125.867 299.517 125.738 299.473 125.591L298.875 123.552C298.844 123.446 298.839 123.334 298.859 123.226C298.879 123.117 298.924 123.015 298.991 122.927C299.058 122.839 299.145 122.768 299.244 122.72C299.343 122.672 299.452 122.647 299.563 122.649V122.649Z" fill="#0077D9"/>
<path opacity="0.6" d="M299.563 122.649H349.508C349.618 122.648 349.726 122.673 349.825 122.722C349.923 122.771 350.009 122.842 350.075 122.929C350.141 123.017 350.186 123.119 350.206 123.227C350.226 123.335 350.22 123.446 350.19 123.552L349.592 125.591C349.548 125.738 349.458 125.867 349.335 125.958C349.212 126.05 349.063 126.099 348.91 126.099H300.155C300.002 126.099 299.853 126.05 299.73 125.958C299.607 125.867 299.517 125.738 299.473 125.591L298.875 123.552C298.844 123.446 298.839 123.334 298.859 123.226C298.879 123.117 298.924 123.015 298.991 122.927C299.058 122.839 299.145 122.768 299.244 122.72C299.343 122.672 299.452 122.647 299.563 122.649V122.649Z" fill="white"/>
<path d="M328.225 119.922H305.501V122.649H328.225V119.922Z" fill="#0077D9"/>
<path opacity="0.2" d="M328.225 119.922H305.501V122.649H328.225V119.922Z" fill="black"/>
<path d="M318.555 127.624C318.502 127.788 318.394 127.927 318.248 128.019C318.103 128.111 317.93 128.149 317.76 128.127C315.966 127.822 315.081 126.189 315.733 124.222L320.307 110.414C321.031 108.231 323.393 106.461 325.57 106.461H333.673C335.849 106.461 337.033 108.255 336.316 110.414L332.255 122.649H330.898L334.952 110.414C335.431 108.985 334.653 107.818 333.224 107.818H325.121C324.355 107.869 323.621 108.141 323.007 108.602C322.393 109.063 321.927 109.692 321.665 110.414L317.09 124.222C316.701 125.388 317.15 126.38 318.101 126.703C318.191 126.734 318.275 126.782 318.347 126.844C318.419 126.907 318.478 126.984 318.52 127.069C318.562 127.155 318.587 127.248 318.593 127.343C318.599 127.438 318.586 127.534 318.555 127.624Z" fill="#0077D9"/>
<path d="M305.656 120.891H228.634C225.777 120.891 223.461 123.207 223.461 126.063V220.739C223.461 223.596 225.777 225.911 228.634 225.911H305.656C308.513 225.911 310.829 223.596 310.829 220.739V126.063C310.829 123.207 308.513 120.891 305.656 120.891Z" fill="#0077D9"/>
<path d="M244.726 160.12H172.966C171.955 160.121 170.987 160.524 170.272 161.239C169.558 161.954 169.157 162.924 169.157 163.935V163.935C169.155 164.437 169.251 164.934 169.442 165.398C169.632 165.862 169.912 166.284 170.266 166.64C170.62 166.996 171.041 167.278 171.504 167.47C171.968 167.663 172.464 167.762 172.966 167.762H244.726V160.12Z" fill="#0077D9"/>
<path opacity="0.3" d="M244.726 169.855L223.551 179.441V167.738H244.726V169.855Z" fill="#263238"/>
<path opacity="0.7" d="M244.726 160.12H199.021C198.01 160.121 197.041 160.524 196.327 161.239C195.613 161.954 195.212 162.924 195.212 163.935C195.213 164.945 195.615 165.913 196.329 166.627C197.043 167.341 198.011 167.742 199.021 167.744H244.726V160.12Z" fill="white"/>
<path opacity="0.7" d="M305.656 120.891H252.494C249.637 120.891 247.322 123.207 247.322 126.063V220.739C247.322 223.596 249.637 225.911 252.494 225.911H305.656C308.513 225.911 310.829 223.596 310.829 220.739V126.063C310.829 123.207 308.513 120.891 305.656 120.891Z" fill="white"/>
<path d="M203.996 167.744H197.508V225.912H203.996V167.744Z" fill="#0077D9"/>
<path opacity="0.7" d="M203.996 167.744H197.508V225.912H203.996V167.744Z" fill="white"/>
<path opacity="0.3" d="M203.996 170.268L197.508 171.673V167.738H203.996V170.268Z" fill="#0077D9"/>
<path opacity="0.3" d="M303.402 133.305H254.743C253.927 133.305 253.266 133.967 253.266 134.782V151.401C253.266 152.216 253.927 152.878 254.743 152.878H303.402C304.218 152.878 304.879 152.216 304.879 151.401V134.782C304.879 133.967 304.218 133.305 303.402 133.305Z" fill="#0077D9"/>
<path d="M216.375 110.599H180.914L177.32 160.126H219.969L216.375 110.599Z" fill="#0077D9"/>
<path opacity="0.3" d="M185.62 110.599H180.914L177.32 160.126H186.864L185.62 110.599Z" fill="#263238"/>
<path d="M200.803 116.639C197.49 116.639 194.524 114.313 194.028 111.215C193.906 110.465 193.94 109.698 194.13 108.962C194.319 108.226 194.659 107.537 195.128 106.939C195.673 106.264 196.35 105.707 197.119 105.302C197.887 104.898 198.73 104.656 199.595 104.589C203.153 104.266 206.478 106.688 207.004 109.971C207.126 110.723 207.09 111.491 206.9 112.228C206.709 112.965 206.368 113.654 205.898 114.253C205.355 114.929 204.679 115.486 203.911 115.891C203.144 116.295 202.302 116.537 201.437 116.603C201.222 116.627 201.012 116.639 200.803 116.639ZM200.235 105.612C200.056 105.612 199.87 105.612 199.691 105.612C198.969 105.666 198.266 105.867 197.624 106.202C196.983 106.538 196.416 107 195.959 107.561C195.579 108.047 195.304 108.605 195.151 109.202C194.997 109.799 194.969 110.421 195.068 111.03C195.505 113.787 198.321 115.814 201.341 115.539C202.063 115.484 202.766 115.283 203.408 114.948C204.049 114.613 204.616 114.151 205.073 113.589C205.453 113.104 205.728 112.545 205.882 111.948C206.035 111.351 206.063 110.729 205.964 110.121C205.551 107.555 203.04 105.612 200.235 105.612Z" fill="#0077D9"/>
<path d="M198.142 116.639C197.933 116.639 197.723 116.639 197.508 116.639C196.643 116.573 195.801 116.331 195.034 115.927C194.267 115.522 193.59 114.965 193.047 114.289C192.576 113.691 192.235 113.001 192.046 112.264C191.856 111.527 191.823 110.758 191.947 110.007C192.467 106.718 195.792 104.296 199.35 104.625C200.216 104.691 201.059 104.933 201.827 105.337C202.595 105.742 203.273 106.299 203.817 106.975C204.287 107.572 204.628 108.261 204.818 108.997C205.007 109.733 205.041 110.501 204.917 111.251C204.403 114.313 201.431 116.639 198.142 116.639ZM198.74 105.612C195.929 105.612 193.418 107.555 193.005 110.145C192.906 110.753 192.934 111.375 193.087 111.972C193.241 112.569 193.516 113.128 193.896 113.613C194.353 114.174 194.92 114.637 195.561 114.972C196.203 115.307 196.906 115.508 197.628 115.563C200.648 115.832 203.464 113.81 203.907 111.054C204.007 110.445 203.978 109.822 203.824 109.225C203.669 108.628 203.392 108.069 203.01 107.585C202.554 107.024 201.988 106.562 201.348 106.227C200.707 105.891 200.005 105.69 199.284 105.636C199.051 105.618 198.872 105.612 198.692 105.612H198.74Z" fill="#0077D9"/>
<path d="M262.134 43.1149H251.609V120.897H262.134V43.1149Z" fill="#0077D9"/>
<path opacity="0.3" d="M262.134 84.7596H251.609V105.086L262.134 103.788V84.7596Z" fill="#263238"/>
<path opacity="0.3" d="M262.134 43.6471H251.609V49.5613L262.134 48.2637V43.6471Z" fill="#263238"/>
<path d="M229.388 99.2252L226.451 56.6177C226.427 56.2587 226.476 55.8984 226.597 55.5593C226.717 55.2202 226.906 54.9095 227.152 54.6465C227.397 54.3835 227.694 54.1738 228.025 54.0304C228.355 53.887 228.711 53.8131 229.071 53.8131H294.498C295.162 53.8115 295.803 54.0627 296.289 54.5158C296.776 54.9688 297.071 55.5898 297.117 56.2529L300.047 98.8604C300.073 99.2197 300.024 99.5803 299.904 99.9198C299.783 100.259 299.595 100.57 299.349 100.834C299.103 101.097 298.806 101.306 298.475 101.45C298.145 101.593 297.788 101.666 297.428 101.665H232.001C231.337 101.667 230.697 101.415 230.212 100.962C229.726 100.509 229.432 99.8878 229.388 99.2252V99.2252Z" fill="#263238"/>
<path d="M293.744 55.7566H229.932C229.729 55.7569 229.528 55.799 229.342 55.8802C229.155 55.9613 228.988 56.0799 228.849 56.2285C228.711 56.377 228.604 56.5525 228.536 56.7439C228.469 56.9353 228.441 57.1387 228.455 57.3413L231.277 98.3402C231.303 98.7146 231.47 99.0653 231.744 99.3217C232.018 99.578 232.379 99.7209 232.754 99.7216H296.567C296.77 99.722 296.972 99.6806 297.159 99.5998C297.346 99.519 297.514 99.4006 297.653 99.2519C297.792 99.1032 297.899 98.9275 297.968 98.7357C298.036 98.5438 298.064 98.34 298.05 98.1369L295.227 57.132C295.2 56.7576 295.032 56.4075 294.757 56.1522C294.481 55.897 294.12 55.7556 293.744 55.7566Z" fill="#0077D9"/>
<path opacity="0.8" d="M293.744 55.7566H229.932C229.729 55.7569 229.528 55.799 229.342 55.8802C229.155 55.9613 228.988 56.0799 228.849 56.2285C228.711 56.377 228.604 56.5525 228.536 56.7439C228.469 56.9353 228.441 57.1387 228.455 57.3413L231.277 98.3402C231.303 98.7146 231.47 99.0653 231.744 99.3217C232.018 99.578 232.379 99.7209 232.754 99.7216H296.567C296.77 99.722 296.972 99.6806 297.159 99.5998C297.346 99.519 297.514 99.4006 297.653 99.2519C297.792 99.1032 297.899 98.9275 297.968 98.7357C298.036 98.5438 298.064 98.34 298.05 98.1369L295.227 57.132C295.2 56.7576 295.032 56.4075 294.757 56.1522C294.481 55.897 294.12 55.7556 293.744 55.7566Z" fill="white"/>
<path d="M294.39 119.468H238.381V120.891H294.39V119.468Z" fill="#263238"/>
<path opacity="0.3" d="M278.8 94.9196H236.653L234.315 60.9771H276.462L278.8 94.9196Z" fill="#0077D9"/>
<path opacity="0.3" d="M290.85 64.015H279.494L279.285 60.9771H290.641L290.85 64.015Z" fill="#0077D9"/>
<path opacity="0.3" d="M291.687 76.256H280.331L279.739 67.597H291.095L291.687 76.256Z" fill="#0077D9"/>
<path d="M267.145 30.8858H245.97V46.6909H267.145V30.8858Z" fill="#0077D9"/>
<path opacity="0.3" d="M254.779 30.8858H245.97V46.6909H254.779V30.8858Z" fill="#263238"/>
<path d="M312.838 98.8784L314.004 97.3894C314.221 97.1131 314.501 96.893 314.82 96.7473C315.14 96.6016 315.49 96.5347 315.84 96.5522L319.165 96.7017C319.82 96.7342 320.457 96.922 321.025 97.2495C321.593 97.577 322.074 98.0349 322.43 98.5854L322.873 99.279C321.079 101.88 317.27 103.387 317.27 103.387L316.229 103.937C316.018 104.057 315.786 104.133 315.545 104.162C315.305 104.191 315.061 104.172 314.827 104.105C314.594 104.039 314.377 103.927 314.187 103.776C313.998 103.625 313.84 103.438 313.723 103.226L312.605 101.169C312.417 100.806 312.34 100.396 312.381 99.9888C312.422 99.5821 312.581 99.1963 312.838 98.8784V98.8784Z" fill="#FF8B7B"/>
<path d="M324.41 69.0561C324.757 69.4807 325.008 69.7797 325.259 70.1385C325.51 70.4973 325.761 70.8262 326.006 71.1671C326.497 71.8607 326.945 72.5664 327.394 73.272C328.264 74.7021 329.063 76.175 329.786 77.6853C330.156 78.4387 330.491 79.2161 330.832 79.9935C331.173 80.7709 331.46 81.5663 331.735 82.3855C332.309 84.0131 332.772 85.6773 333.123 87.3669L333.188 87.642C333.231 87.8384 333.251 88.039 333.248 88.24C333.245 89.3087 333.043 90.3675 332.65 91.3615C332.316 92.1856 331.884 92.9665 331.364 93.6877C330.484 94.8725 329.441 95.9273 328.267 96.8213C327.216 97.6271 326.1 98.3433 324.93 98.9621C323.778 99.5743 322.578 100.092 321.342 100.511C320.859 100.676 320.334 100.673 319.853 100.501C319.372 100.329 318.963 99.9993 318.694 99.5651C318.425 99.1308 318.312 98.6181 318.373 98.1109C318.433 97.6037 318.664 97.1322 319.028 96.7734L319.177 96.6299C319.913 95.8944 320.762 95.099 321.497 94.3216C322.227 93.5732 322.913 92.7846 323.555 91.9595C324.113 91.2727 324.585 90.5195 324.96 89.717C325.259 89.0473 325.223 88.521 325.133 88.521L325.259 89.3702C324.81 88.0785 324.332 86.7988 323.752 85.525C323.172 84.2513 322.556 83.0015 321.862 81.7576C321.169 80.5138 320.457 79.2939 319.685 78.0979C319.303 77.4999 318.908 76.9019 318.489 76.3039L317.891 75.4428L317.341 74.6654L317.198 74.462C316.548 73.5114 316.288 72.3471 316.473 71.2104C316.658 70.0737 317.273 69.0516 318.191 68.3559C319.108 67.6602 320.259 67.3443 321.403 67.4735C322.548 67.6028 323.598 68.1673 324.338 69.0501L324.41 69.0561Z" fill="#FF8B7B"/>
<path d="M316.205 63.9851C314.519 67.8123 314.626 72.5903 319.793 79.8979C323.226 80.2746 329.576 75.8135 329.576 75.8135C329.576 75.8135 325.217 63.5844 316.205 63.9851Z" fill="#263238"/>
<path d="M313.329 50.6796C312.33 54.3872 311.098 61.1805 313.502 63.6502C313.502 63.6502 309.992 63.124 302.541 67.7346C300.382 64.6369 301.985 63.6502 301.985 63.6502C306.171 62.6635 306.314 59.6018 305.806 56.7194L313.329 50.6796Z" fill="#FF8B7B"/>
<path d="M298.163 66.407C299.27 64.015 301.877 61.7366 303.677 62.0775C305.477 62.4183 306.571 62.9805 307.636 62.0775C308.7 61.1745 311.331 59.8589 312.671 61.3479C314.555 63.429 317.407 61.9459 316.331 64.2243C315.171 66.7 298.163 66.407 298.163 66.407Z" fill="#0077D9"/>
<path d="M299.856 43.8744C299.784 44.3827 299.461 44.7773 299.138 44.7534C298.815 44.7295 298.612 44.2989 298.684 43.7906C298.755 43.2823 299.078 42.8936 299.401 42.9176C299.724 42.9415 299.934 43.378 299.856 43.8744Z" fill="#263238"/>
<path d="M299.539 42.9534L298.403 42.5169C298.403 42.5169 298.875 43.5096 299.539 42.9534Z" fill="#263238"/>
<path d="M299.748 44.8311C299.139 45.9572 298.387 47.0003 297.512 47.9348C298.08 48.6045 299.234 48.4012 299.234 48.4012L299.748 44.8311Z" fill="#FF5652"/>
<path d="M299.013 39.8438C298.974 39.7792 298.961 39.7023 298.977 39.6286C299.001 39.5544 299.054 39.4926 299.123 39.4559C299.192 39.4192 299.272 39.4103 299.348 39.4312C299.817 39.536 300.256 39.7482 300.629 40.0511C301.003 40.3541 301.301 40.7397 301.5 41.1774C301.515 41.2129 301.522 41.2512 301.521 41.2897C301.519 41.3282 301.509 41.3659 301.492 41.4001C301.474 41.4343 301.449 41.4643 301.418 41.4878C301.388 41.5113 301.353 41.5278 301.315 41.5362C301.239 41.5585 301.157 41.5519 301.085 41.5177C301.013 41.4835 300.957 41.4241 300.926 41.3508C300.762 41.0071 300.522 40.7056 300.223 40.4692C299.925 40.2329 299.576 40.0681 299.204 39.9874C299.125 39.9647 299.057 39.9136 299.013 39.8438Z" fill="#263238"/>
<path d="M316.498 43.2405C315.368 49.2205 315.021 51.7739 311.607 54.6443C306.47 58.9679 299.407 56.6835 298.738 50.5779C298.14 45.0883 300.071 36.2259 306.236 34.2466C307.547 33.7663 308.963 33.6478 310.335 33.9035C311.707 34.1592 312.985 34.7796 314.035 35.6997C315.085 36.6197 315.867 37.8054 316.301 39.1323C316.734 40.4591 316.802 41.8782 316.498 43.2405V43.2405Z" fill="#FF8B7B"/>
<path d="M303.091 45.172C300.926 41.7814 298.582 37.5475 300.053 34.6054C301.524 31.6632 304.867 32.3629 304.867 32.3629C304.867 32.3629 311.343 28.727 317.144 33.4632C324.834 39.7601 316.588 46.6909 314.549 52.6949C312.294 59.3028 300.669 51.3015 303.091 45.172Z" fill="#263238"/>
<path d="M336.232 34.1808C333.105 22.5497 319.386 27.8958 315.398 34.7788L317.024 35.2034C333.392 24.6427 325.331 39.9096 325.468 46.1348C325.606 52.36 331.777 56.1932 331.777 56.1932C331.777 56.1932 339.354 45.8059 336.232 34.1808Z" fill="#263238"/>
<path d="M332.094 54.74C330.348 54.74 327.908 54.4111 326.317 52.8025C324.882 51.3493 324.434 49.1308 324.996 46.2245C325.175 45.3036 325.462 44.2212 325.761 43.079C326.706 39.491 327.884 35.0778 326.03 33.511C324.727 32.4047 321.982 32.7934 317.868 34.6532C317.85 34.6621 317.831 34.6674 317.811 34.6686C317.791 34.6698 317.772 34.667 317.753 34.6602C317.735 34.6535 317.718 34.643 317.704 34.6295C317.689 34.6159 317.678 34.5996 317.67 34.5814C317.662 34.5634 317.658 34.5439 317.658 34.5242C317.657 34.5045 317.661 34.4849 317.668 34.4666C317.675 34.4482 317.686 34.4315 317.7 34.4174C317.713 34.4032 317.73 34.3919 317.748 34.3841C322.03 32.4406 324.804 32.0818 326.222 33.2838C328.219 34.9701 327.071 39.3176 326.054 43.1567C325.749 44.2929 325.456 45.3693 325.289 46.2843C324.751 49.1068 325.169 51.2357 326.533 52.6171C329.074 55.1885 334.121 54.3154 334.175 54.3035C334.195 54.3003 334.215 54.3011 334.234 54.3057C334.253 54.3103 334.272 54.3187 334.288 54.3303C334.304 54.342 334.317 54.3567 334.328 54.3737C334.338 54.3906 334.345 54.4094 334.348 54.429C334.352 54.4487 334.351 54.4687 334.346 54.4881C334.342 54.5074 334.333 54.5257 334.322 54.5418C334.31 54.5579 334.295 54.5715 334.278 54.5819C334.261 54.5923 334.242 54.5993 334.223 54.6025C333.518 54.7035 332.806 54.7495 332.094 54.74V54.74Z" fill="#263238"/>
<path d="M317.377 32.2193C317.527 31.4599 315.613 31.7768 315.523 32.4526C315.434 33.1283 315.183 32.7516 314.435 33.7383C313.688 34.725 313.586 35.8851 316.038 36.6505C317.592 37.1349 317.832 35.9389 318.627 35.3409C319.064 35.018 319.554 34.8505 319.871 34.6054C319.949 34.5447 320.007 34.4621 320.038 34.3681C320.068 34.2742 320.07 34.1733 320.043 34.0782C320.016 33.9832 319.962 33.8983 319.886 33.8346C319.811 33.7708 319.718 33.731 319.62 33.7203C318.615 33.6366 317.222 32.9668 317.377 32.2193Z" fill="#0077D9"/>
<path d="M304.191 47.3009C303.923 47.8184 303.549 48.274 303.093 48.6386C302.638 49.0031 302.112 49.2685 301.548 49.4178C300.143 49.7288 299.611 48.1082 300.143 46.5295C300.621 45.1182 301.937 43.2464 303.276 43.6531C304.616 44.0597 304.951 45.9315 304.191 47.3009Z" fill="#FF8B7B"/>
<path d="M292.112 102.957C292.112 102.957 291.191 136.194 293.164 157.303C293.039 177.115 293.649 222.485 293.649 222.485C293.804 223.496 299.114 223.083 300.017 222.485C300.017 222.485 309.974 189.434 305.555 157.303C316.612 123.779 314.226 102.957 314.226 102.957H292.112Z" fill="#263238"/>
<path d="M298.744 102.957C298.744 102.957 309.543 140.469 313.921 158.894C318.525 178.239 332.208 207.487 333.344 220.308C334.54 220.781 338.361 220.254 340.406 219.262C340.406 219.262 338.534 178.377 327.412 159.749C329.923 113.918 317.485 102.939 317.485 102.939L298.744 102.957Z" fill="#263238"/>
<path d="M290.676 73.0867C290.535 76.956 290.591 80.8301 290.844 84.6938C291.041 89.735 291.388 94.6924 292.112 102.957H317.485C316.977 95.8107 317.808 87.6659 322.365 71.5857C322.634 70.7446 322.711 69.8541 322.592 68.9791C322.472 68.1042 322.158 67.2672 321.673 66.5293C321.188 65.7914 320.544 65.1713 319.788 64.7145C319.033 64.2578 318.184 63.9758 317.305 63.8894C316.301 63.7878 315.23 63.704 314.136 63.6502C310.302 63.3779 306.453 63.3779 302.619 63.6502C301.363 63.7638 300.065 63.9253 298.827 64.0987C296.639 64.4237 294.631 65.4968 293.145 67.1355C291.659 68.7742 290.787 70.8772 290.676 73.0867V73.0867Z" fill="#263238"/>
<path d="M317.359 99.8173C312.282 101.115 304.556 101.486 291.873 100.134C292.178 106.862 289.217 152.1 289.217 152.1C289.217 152.1 314.931 157.751 329.469 150.079C330.408 115.891 317.359 99.8173 317.359 99.8173Z" fill="#0077D9"/>
<path opacity="0.2" d="M307.654 127.098C307.654 127.098 314.632 120.598 318.077 116.161C317.802 120.813 313.646 124.987 307.654 127.098Z" fill="black"/>
<path d="M269.154 73.0508L270.841 73.9059C271.157 74.0631 271.431 74.294 271.639 74.5791C271.847 74.8643 271.984 75.1954 272.037 75.5444L272.533 78.8334C272.636 79.4836 272.582 80.149 272.373 80.7735C272.165 81.398 271.81 81.9632 271.337 82.4214L270.739 83.0194C267.845 81.7876 265.62 78.3251 265.62 78.3251L264.879 77.4102C264.72 77.2265 264.599 77.0131 264.523 76.7822C264.448 76.5514 264.419 76.3078 264.438 76.0657C264.458 75.8235 264.525 75.5877 264.637 75.3719C264.748 75.1562 264.902 74.9648 265.088 74.8089L266.882 73.3139C267.195 73.0556 267.576 72.8934 267.979 72.8467C268.383 72.8 268.791 72.8709 269.154 73.0508V73.0508Z" fill="#FF8B7B"/>
<path d="M299.443 73.6488C299.258 74.163 299.12 74.5219 298.959 74.9345C298.797 75.3471 298.624 75.7179 298.456 76.1305C298.122 76.9079 297.751 77.6554 297.374 78.4029C296.612 79.8985 295.77 81.3518 294.851 82.7563C294.396 83.462 293.912 84.1556 293.421 84.8433C292.931 85.531 292.405 86.2008 291.849 86.8526C290.757 88.1884 289.574 89.4472 288.308 90.62L288.141 90.7815C287.989 90.9258 287.823 91.054 287.645 91.1642C286.913 91.6193 286.101 91.9317 285.253 92.0851C284.547 92.2148 283.826 92.243 283.112 92.1688C282.025 92.0387 280.965 91.7443 279.966 91.2958C278.413 90.5799 276.96 89.6653 275.643 88.5749C274.444 87.5959 273.314 86.537 272.258 85.4055C271.215 84.2997 270.242 83.1293 269.346 81.9012C269.035 81.4758 268.884 80.955 268.919 80.4296C268.953 79.9042 269.17 79.4074 269.533 79.026C269.896 78.6445 270.382 78.4025 270.905 78.3422C271.428 78.2819 271.955 78.4071 272.396 78.6959L272.497 78.7617C273.61 79.4853 274.788 80.2746 275.936 80.9803C277.084 81.6859 278.244 82.3736 279.38 82.9536C280.398 83.5027 281.473 83.9379 282.586 84.2513C282.908 84.3522 283.248 84.3848 283.584 84.347C283.662 84.347 283.656 84.2872 283.584 84.2872C283.442 84.2916 283.303 84.3285 283.178 84.3948L282.52 84.945C283.393 83.8925 284.242 82.8161 285.025 81.662C285.809 80.5078 286.568 79.3238 287.268 78.074C287.968 76.8242 288.649 75.5923 289.277 74.3125C289.594 73.6787 289.875 73.0328 290.192 72.393L290.617 71.4362L290.999 70.5691L291.101 70.3418C291.572 69.284 292.433 68.4492 293.506 68.0122C294.578 67.5751 295.777 67.5695 296.854 67.9968C297.93 68.424 298.799 69.2508 299.279 70.3042C299.76 71.3577 299.814 72.5561 299.431 73.6488H299.443Z" fill="#FF8B7B"/>
<path d="M299.527 64.003C295.383 64.5412 291.352 67.1126 287.782 75.3291C289.241 78.4627 296.346 81.5902 296.346 81.5902C296.346 81.5902 304.538 71.484 299.527 64.003Z" fill="#263238"/>
<defs>
<linearGradient id="paint0_linear_1_5293" x1="0" y1="193" x2="328" y2="3.31223e-07" gradientUnits="userSpaceOnUse">
<stop offset="0.0780826" stop-color="#00CC67"/>
<stop offset="1" stop-color="#60FFB0"/>
</linearGradient>
</defs>
</svg>
