<svg width="74" height="79" viewBox="0 0 74 79" fill="none" xmlns="http://www.w3.org/2000/svg">
<path fill-rule="evenodd" clip-rule="evenodd" d="M4.79862 -6.53385C-7.29677 -5.48909 -8.03982 -5.20366 -12.4174 6.56325C-15.9583 16.0844 -20.2992 31.1817 -22.3653 41.1636C-24.8359 53.0937 -24.7785 53.9017 -14.9097 62.0031C-6.9259 68.5591 6.10042 77.7349 14.9431 83.0319C25.5114 89.3636 26.2898 89.5749 36.765 82.8169C45.2399 77.3491 57.6331 67.921 65.164 61.2124C74.1652 53.1922 74.5872 52.5165 71.1944 40.2364C68.4475 30.302 63.0813 15.3011 58.8934 5.85743C53.8888 -5.43052 53.371 -6.05716 40.7977 -6.89008C30.6249 -7.56123 14.9182 -7.40726 4.79862 -6.53385ZM36.9546 1.44729C28.8131 0.912387 16.2391 1.04261 8.13908 1.74513C-1.54296 2.58482 -2.13703 2.81239 -5.64476 12.2312C-8.4847 19.8512 -11.9627 31.935 -13.6226 39.9264C-15.6022 49.4733 -15.5571 50.1193 -7.66022 56.5991C-1.27103 61.8422 9.15057 69.1829 16.2276 73.4179C24.6858 78.4791 25.3068 78.6484 33.6972 73.2377C40.4813 68.8583 50.4051 61.3088 56.4359 55.9392C63.6431 49.5154 63.9835 48.9766 61.2711 39.1511C59.0753 31.2003 54.7843 19.1982 51.4361 11.6416C47.4334 2.60944 47.0206 2.10804 36.9546 1.44729ZM55.5073 41.6275C53.2469 33.4364 48.7723 20.9202 45.3238 13.1335C43.1699 8.27265 42.5551 8.09867 37.718 7.77847C29.3279 7.2276 16.2159 7.3642 7.86913 8.08799C2.6587 8.53917 2.31554 9.06802 0.630321 13.5949C-2.29444 21.446 -5.92326 34.0449 -7.63265 42.279C-8.6981 47.4176 -8.29526 47.9218 -4.50244 51.0364C2.0814 56.4402 12.9498 64.0924 20.2397 68.455C24.7925 71.1796 25.3839 70.9612 29.4149 68.3603C36.4075 63.8489 46.7545 55.9774 52.9682 50.4422C56.8466 46.9874 56.8115 46.3483 55.5088 41.6264L55.5073 41.6275ZM1.91124 30.9606L7.74568 26.522L29.1096 54.6047L23.2751 59.0432L1.91124 30.9606ZM20.4782 16.8358L20.0728 39.4215L41.8409 44.9169L48.5647 39.8018L26.7951 34.3075L27.1993 11.7203L20.4755 16.8354L20.4782 16.8358Z" fill="white" fill-opacity="0.2"/>
</svg>
