<svg width="19" height="18" viewBox="0 0 19 18" fill="none" xmlns="http://www.w3.org/2000/svg">
<path d="M8.55443 0.037714C7.94716 0.107943 7.22009 0.376463 6.74502 0.698687C6.63761 0.773046 5.36111 1.77277 3.91523 2.91294C1.22177 5.04045 1.02761 5.20982 0.664071 5.77578C0.345978 6.27564 0.114637 6.94488 0.040278 7.60172C-0.013426 8.05614 -0.013426 13.7901 0.040278 14.2445C0.089851 14.6865 0.172473 15.0005 0.350109 15.4342C0.742561 16.4009 1.65966 17.2974 2.64699 17.6857C3.30383 17.9459 3.87805 18.0203 5.03062 17.9955C5.74943 17.979 5.87336 17.9666 6.07992 17.884C6.4104 17.7559 6.73676 17.4461 6.90613 17.1032L7.04246 16.8264L7.06311 15.174C7.0879 13.3522 7.08377 13.3811 7.35642 13.0671C7.43491 12.9804 7.58776 12.8647 7.70343 12.8151C7.90585 12.7201 7.94303 12.716 9.04603 12.716C10.149 12.716 10.1862 12.7201 10.3886 12.8151C10.5043 12.8647 10.6572 12.9804 10.7356 13.0671C11.0083 13.3811 11.0042 13.3522 11.0289 15.174L11.0496 16.8264L11.1859 17.1032C11.3512 17.4419 11.6775 17.7518 12.0121 17.8881C12.2394 17.979 12.2889 17.9831 13.3424 17.9831C14.3214 17.979 14.4743 17.9707 14.7924 17.8922C15.6888 17.665 16.1969 17.38 16.8331 16.7438C17.461 16.1159 17.7543 15.5954 17.9774 14.7113C18.0724 14.3478 18.0724 14.3395 18.0724 10.9396C18.0724 7.18448 18.0807 7.31254 17.808 6.56482C17.5726 5.9245 17.1471 5.29658 16.6555 4.87934C16.3002 4.57364 11.5743 0.855669 11.347 0.698687C10.8472 0.35994 10.149 0.112074 9.47979 0.0335846C9.06255 -0.011858 8.98819 -0.011858 8.55443 0.037714ZM9.37239 1.35553C9.79789 1.40923 10.2977 1.591 10.6076 1.80169C10.843 1.9628 15.4988 5.62706 15.7756 5.86667C16.0399 6.10214 16.2795 6.4161 16.4448 6.74658C16.7629 7.3993 16.7505 7.2134 16.7505 10.919C16.7505 14.6369 16.767 14.4387 16.4324 15.112C16.1845 15.6077 15.6971 16.0952 15.2013 16.3431C14.6519 16.6157 14.4743 16.6488 13.458 16.6694C12.669 16.6901 12.5451 16.6818 12.4542 16.624L12.3509 16.5579V15.079C12.3509 14.1949 12.3344 13.5009 12.3055 13.3522C12.1443 12.4723 11.4007 11.6832 10.5126 11.456C10.1573 11.3651 7.93477 11.3651 7.5795 11.456C6.71197 11.6791 5.9849 12.4268 5.799 13.2902C5.75769 13.4968 5.74117 13.9347 5.74117 15.0583V16.5579L5.63789 16.624C5.54701 16.6818 5.42307 16.6901 4.63404 16.6694C3.61779 16.6488 3.44016 16.6157 2.89072 16.3431C2.39499 16.0952 1.90753 15.6077 1.65966 15.112C1.32504 14.4387 1.34157 14.6369 1.34157 10.919C1.34157 7.87437 1.3457 7.59346 1.41593 7.34559C1.55638 6.82508 1.79186 6.40784 2.13473 6.04843C2.28345 5.89558 5.6255 3.23517 7.35642 1.88431C7.43904 1.82234 7.61668 1.71493 7.74887 1.64883C8.15785 1.45054 8.36027 1.39684 8.98406 1.31835C9.00885 1.31835 9.18235 1.33487 9.37239 1.35553Z" fill="#A0A3BD"/>
</svg>
