<svg width="22" height="22" viewBox="0 0 22 22" fill="none" xmlns="http://www.w3.org/2000/svg">
<path d="M10.0637 2.05738C9.56606 2.17854 9.09873 2.50308 8.83044 2.91416C8.62707 3.22139 8.53619 3.47669 8.47561 3.90508C8.43234 4.20798 8.40638 4.27289 8.31118 4.34645C8.16406 4.45463 8.03857 4.42434 7.79625 4.22096C7.13419 3.66709 6.22981 3.57189 5.42496 3.97432C5.2562 4.05653 5.0182 4.25991 4.63741 4.63637C4.19604 5.07774 4.06623 5.23352 3.94074 5.48883C3.55129 6.27204 3.63351 7.0293 4.19604 7.76925C4.32153 7.93368 4.42538 8.10244 4.42538 8.14138C4.42538 8.18465 4.38644 8.26687 4.33884 8.32312C4.2696 8.41399 4.20037 8.43996 3.96237 8.46592C3.00174 8.56545 2.26612 9.1799 2.0714 10.0453C1.9762 10.4521 1.9762 11.5425 2.0714 11.9493C2.24449 12.7109 2.88058 13.3167 3.68111 13.4898C3.84121 13.5201 4.03161 13.5503 4.1095 13.5503C4.20469 13.5503 4.27393 13.585 4.33884 13.6672C4.46 13.823 4.42971 13.9874 4.23931 14.1951C3.63783 14.8615 3.55562 15.9216 4.04026 16.6832C4.21768 16.9645 5.03984 17.7867 5.31245 17.9597C5.67593 18.1891 6.04807 18.2799 6.53704 18.2583C7.0563 18.2323 7.31593 18.1372 7.75298 17.8126C7.93039 17.6828 8.1078 17.5746 8.14675 17.5746C8.19002 17.5746 8.27224 17.6136 8.32849 17.6612C8.41936 17.7304 8.44532 17.7996 8.47129 18.0376C8.57081 18.9983 9.18527 19.7339 10.0507 19.9286C10.4575 20.0238 11.5479 20.0238 11.9547 19.9286C12.8158 19.7339 13.4432 18.9939 13.5384 18.0593C13.586 17.6049 13.7851 17.4664 14.0793 17.6828C14.6721 18.1155 14.9404 18.228 15.4597 18.2583C16.2213 18.2973 16.628 18.1025 17.3896 17.3366C17.818 16.9082 17.9435 16.7525 18.069 16.4885C18.4454 15.7269 18.3372 14.8485 17.7963 14.2167C17.5757 13.9658 17.541 13.8359 17.6535 13.6888C17.7271 13.5893 17.792 13.5633 18.0992 13.5201C18.8046 13.4205 19.2892 13.1306 19.644 12.607C19.9253 12.1916 19.9686 11.9969 19.9945 11.1358C20.0162 10.2487 19.9556 9.89822 19.7176 9.50012C19.3455 8.877 18.7829 8.5265 18.0473 8.45727C17.8007 8.43563 17.7358 8.41399 17.6665 8.32312C17.541 8.16302 17.5584 8.03753 17.7444 7.8255C18.3372 7.13748 18.4584 6.29801 18.069 5.50181C17.9391 5.2292 17.8223 5.0864 17.368 4.63205C16.9136 4.18202 16.7665 4.06086 16.4982 3.93104C15.7323 3.55891 14.8539 3.65843 14.2351 4.195C13.9711 4.42434 13.8456 4.45896 13.6942 4.34645C13.5947 4.27289 13.5687 4.20798 13.5254 3.90075C13.4648 3.47236 13.3783 3.22139 13.1836 2.92714C12.898 2.4901 12.448 2.17854 11.9547 2.06603C11.5869 1.97949 10.3969 1.97949 10.0637 2.05738ZM11.7989 3.48102C12.0369 3.61516 12.1321 3.7969 12.1753 4.20798C12.2576 5.02582 12.7941 5.61431 13.586 5.75711C14.0793 5.84798 14.5596 5.71384 14.9967 5.36334C15.3255 5.09938 15.5029 5.04313 15.7626 5.11236C15.9227 5.15563 16.0352 5.24218 16.3987 5.61431C17.0348 6.26339 17.0694 6.46244 16.6367 6.99901C16.3078 7.41009 16.2213 7.65241 16.2169 8.14138C16.2169 8.50054 16.2342 8.58708 16.3338 8.80344C16.4982 9.15827 16.6886 9.38328 16.9872 9.57368C17.2338 9.73378 17.3593 9.77273 17.9651 9.86792C18.1728 9.90254 18.2767 9.94581 18.3719 10.0324C18.5839 10.2314 18.6185 10.3742 18.6185 11.006C18.6185 11.4949 18.6055 11.6031 18.5276 11.7589C18.4021 12.0185 18.2118 12.1267 17.7877 12.17C16.3338 12.3171 15.7063 13.9268 16.6713 15.0432C16.7665 15.1514 16.8573 15.2942 16.8703 15.3591C16.8833 15.424 16.9006 15.4976 16.9093 15.5235C16.9179 15.5538 16.9049 15.6577 16.879 15.7572C16.84 15.9043 16.7448 16.0212 16.3814 16.376C15.7236 17.0251 15.5203 17.0597 14.9967 16.64C14.5942 16.3197 14.3216 16.2159 13.8586 16.2159C13.374 16.2159 13.0797 16.3284 12.7336 16.6529C12.3917 16.9688 12.2273 17.302 12.171 17.7867C12.1234 18.2107 12.0369 18.3838 11.7989 18.5136C11.6474 18.6045 11.5739 18.6131 11.0243 18.6131C10.094 18.6131 9.91224 18.4877 9.83435 17.7823C9.77809 17.315 9.60933 16.9645 9.3021 16.6789C8.61841 16.0601 7.72701 16.0341 7.02168 16.6183C6.9135 16.7092 6.78369 16.8044 6.73176 16.8303C6.6106 16.8953 6.26443 16.8953 6.14327 16.8347C6.09134 16.8087 5.84902 16.588 5.60237 16.3457C4.97493 15.7269 4.94031 15.5235 5.37303 14.987C5.83604 14.4115 5.92258 13.7321 5.61103 13.1003C5.3514 12.5724 4.83213 12.2262 4.20469 12.1613C3.79361 12.1224 3.62053 12.0315 3.48638 11.7935C3.39551 11.6421 3.38686 11.5685 3.38686 11.019C3.38686 10.0886 3.51235 9.90687 4.20902 9.82898C4.65472 9.77705 4.96195 9.63858 5.26052 9.35732C5.67593 8.96355 5.87498 8.39669 5.77546 7.88175C5.71055 7.53125 5.5591 7.21104 5.33841 6.96439C5.12638 6.7264 5.06147 6.54466 5.10042 6.30233C5.12206 6.15521 5.19994 6.05569 5.6067 5.64028C5.97018 5.27247 6.13029 5.14265 6.25145 5.10803C6.48079 5.04745 6.71013 5.11669 6.96543 5.32872C8.11213 6.28503 9.69155 5.66191 9.83867 4.19933C9.87762 3.7969 9.9858 3.59352 10.2151 3.46804C10.3536 3.3988 10.4661 3.38582 11.0027 3.38582C11.5739 3.38149 11.6474 3.39015 11.7989 3.48102Z" fill="#A0A3BD"/>
<path d="M10.3536 7.59615C9.73482 7.73029 9.22854 7.97261 8.76121 8.36638C7.22939 9.66021 7.13419 12.0185 8.55783 13.4422C9.3497 14.2297 10.5397 14.6062 11.6171 14.3985C13.4735 14.0436 14.7024 12.3128 14.4168 10.4651C14.2048 9.09335 13.2182 8.01588 11.8248 7.63509C11.4873 7.54422 10.6998 7.52259 10.3536 7.59615ZM11.5003 8.98517C12.3225 9.20153 12.9283 9.8809 13.0494 10.7204C13.2009 11.7502 12.5258 12.7412 11.5003 13.0094C10.4142 13.2907 9.28047 12.6027 8.99055 11.4949C8.60543 10.0107 10.0161 8.60005 11.5003 8.98517Z" fill="#A0A3BD"/>
</svg>
