<svg width="21" height="18" viewBox="0 0 21 18" fill="none" xmlns="http://www.w3.org/2000/svg">
<path d="M6.48631 0.0698395C5.5115 0.283701 4.72071 0.711424 4.04431 1.38782C3.45743 1.9747 3.07447 2.61629 2.82082 3.45681C2.69648 3.85967 2.68156 3.97406 2.68156 4.72009C2.67659 5.42633 2.69151 5.6004 2.79098 5.9585C3.63648 9.04706 7.16271 10.4794 9.86333 8.83817C11.4598 7.86336 12.365 6.04305 12.1512 4.23766C11.9025 2.17364 10.3905 0.502536 8.39614 0.0897331C7.859 -0.0196838 6.95382 -0.0296316 6.48631 0.0698395Z" fill="#00CC67"/>
<path d="M12.002 0.0300465C11.7334 0.0748081 11.7384 0.0897293 12.0865 0.45777C12.8922 1.30824 13.4592 2.44718 13.6781 3.65077C13.7974 4.30728 13.7825 5.35669 13.6482 5.99828C13.3995 7.19193 12.927 8.117 12.0666 9.08187L11.7533 9.43499L11.9373 9.46483C12.4645 9.53943 12.7778 9.54938 13.2255 9.49467C15.2149 9.25594 16.8064 7.88325 17.3336 5.95352C17.4878 5.40146 17.4977 4.13321 17.3585 3.62591C17.0501 2.53173 16.4931 1.66634 15.6774 1.01978C14.7971 0.323485 13.8123 -0.00974178 12.6883 0.000205994C12.38 0.00517941 12.0716 0.0200996 12.002 0.0300465Z" fill="#00CC67"/>
<path d="M3.24856 10.6933C1.73661 11.0862 0.542959 12.2998 0.125183 13.8664C0.0157655 14.2842 0.00084493 14.4483 0.00084493 15.1894C-0.0041286 15.8509 0.0157655 16.1045 0.0853949 16.3582C0.279362 17.0694 0.731953 17.7806 1.09502 17.9298C1.22931 17.9895 2.32348 17.9994 7.4114 17.9994C14.4191 17.9994 13.8123 18.0342 14.1555 17.5667C14.628 16.9202 14.8369 16.204 14.8369 15.2142C14.8369 13.8366 14.4539 12.812 13.5985 11.9168C13.0166 11.305 12.3004 10.8723 11.5643 10.6834C10.8829 10.5093 10.3806 10.5739 9.67933 10.932C8.24695 11.6482 6.68527 11.6532 5.15839 10.942C4.32781 10.559 3.94485 10.5093 3.24856 10.6933Z" fill="#00CC67"/>
<path d="M15.6475 10.6635C15.4337 10.7231 15.0159 10.9022 14.9463 10.9619C14.9363 10.9669 15.0408 11.121 15.18 11.3001C15.752 12.0561 16.1051 12.827 16.314 13.7819C16.3836 14.1101 16.4035 14.4036 16.3985 15.2391C16.3985 16.204 16.3886 16.3184 16.2692 16.756C16.1996 17.0147 16.0603 17.4026 15.9658 17.6115L15.7868 17.9994H17.3286C18.5173 17.9994 18.9052 17.9845 19.0295 17.9298C19.3827 17.7856 19.8502 17.0594 20.0392 16.3582C20.1088 16.1045 20.1287 15.8459 20.1237 15.1894C20.1237 14.4433 20.1088 14.2892 19.9944 13.8565C19.6761 12.6479 18.8107 11.5637 17.7513 11.0265C16.9854 10.6386 16.2046 10.5043 15.6475 10.6635Z" fill="#00CC67"/>
</svg>
