<svg width="9" height="8" viewBox="0 0 9 8" fill="none" xmlns="http://www.w3.org/2000/svg">
<path d="M4.03859 0.521987C4.20968 0.112139 4.79033 0.112138 4.96142 0.521986L5.66431 2.20578C5.73269 2.36958 5.88277 2.48484 6.05866 2.50865L7.94172 2.76351C8.37517 2.82218 8.52967 3.36984 8.19078 3.64638L6.74917 4.82279C6.60151 4.94328 6.53519 5.13723 6.57816 5.3229L7.03828 7.31125C7.14167 7.75802 6.63928 8.09668 6.26392 7.83323L4.78725 6.79682C4.61486 6.67583 4.38515 6.67583 4.21276 6.79682L2.73607 7.83325C2.36071 8.0967 1.85832 7.75805 1.9617 7.31127L2.42179 5.32289C2.46476 5.13722 2.39844 4.94328 2.25079 4.82279L0.809206 3.64638C0.470323 3.36983 0.62482 2.82218 1.05827 2.76352L2.94135 2.50865C3.11724 2.48484 3.26732 2.36958 3.3357 2.20578L4.03859 0.521987Z" fill="#00CC67"/>
</svg>
