<svg width="19" height="18" viewBox="0 0 19 18" fill="none" xmlns="http://www.w3.org/2000/svg">
<path d="M8.55443 0.037714C7.94716 0.107943 7.22009 0.376463 6.74502 0.698687C6.63761 0.773046 5.36111 1.77277 3.91523 2.91294C1.22177 5.04045 1.02761 5.20982 0.664071 5.77578C0.345978 6.27564 0.114637 6.94488 0.040278 7.60172C-0.013426 8.05614 -0.013426 13.7901 0.040278 14.2445C0.089851 14.6865 0.172473 15.0005 0.350109 15.4342C0.742561 16.4009 1.65966 17.2974 2.64699 17.6857C3.30383 17.9459 3.87805 18.0203 5.03062 17.9955C5.74943 17.979 5.87336 17.9666 6.07992 17.884C6.4104 17.7559 6.73676 17.4461 6.90613 17.1032L7.04246 16.8264L7.06311 15.174C7.0879 13.3522 7.08377 13.3811 7.35642 13.0671C7.43491 12.9804 7.58776 12.8647 7.70343 12.8151C7.90585 12.7201 7.94303 12.716 9.04603 12.716C10.149 12.716 10.1862 12.7201 10.3886 12.8151C10.5043 12.8647 10.6572 12.9804 10.7356 13.0671C11.0083 13.3811 11.0042 13.3522 11.0289 15.174L11.0496 16.8264L11.1859 17.1032C11.3512 17.4419 11.6775 17.7518 12.0121 17.8881C12.2394 17.979 12.2889 17.9831 13.3424 17.9831C14.3214 17.979 14.4743 17.9707 14.7924 17.8922C15.6888 17.665 16.1969 17.38 16.8331 16.7438C17.461 16.1159 17.7543 15.5954 17.9774 14.7113C18.0724 14.3478 18.0724 14.3395 18.0724 10.9396C18.0724 7.18448 18.0807 7.31254 17.808 6.56482C17.5726 5.9245 17.1471 5.29658 16.6555 4.87934C16.3002 4.57364 11.5743 0.855669 11.347 0.698687C10.8472 0.35994 10.149 0.112074 9.47979 0.0335846C9.06255 -0.011858 8.98819 -0.011858 8.55443 0.037714Z" fill="#00CC67"/>
</svg>
