<svg width="23" height="22" viewBox="0 0 23 22" fill="none" xmlns="http://www.w3.org/2000/svg">
<path d="M5.95711 2.07518C4.37398 2.36066 3.06335 3.49394 2.55727 5.02084C2.37992 5.54855 2.33667 5.97677 2.33667 7.14898C2.33667 8.14384 2.34532 8.27361 2.41885 8.4077C2.65676 8.85755 3.2753 8.90945 3.58241 8.50286L3.6992 8.35147L3.72515 7.09275C3.74678 5.88161 3.75111 5.82105 3.86357 5.48799C4.02361 5.00786 4.25286 4.63154 4.60755 4.27685C4.96224 3.92216 5.33856 3.69291 5.81869 3.53287C6.15175 3.42041 6.21231 3.41608 7.42345 3.39445L8.68217 3.3685L8.83356 3.25171C9.24015 2.9446 9.18825 2.32606 8.7384 2.08816C8.60431 2.01462 8.47887 2.00597 7.44075 2.0103C6.66216 2.01462 6.18636 2.03192 5.95711 2.07518Z" fill="#A0A3BD"/>
<path d="M13.9506 2.07518C13.7517 2.17899 13.6781 2.26117 13.6003 2.46447C13.5181 2.67642 13.5397 2.86242 13.6695 3.07437C13.8382 3.3512 13.903 3.36417 15.2699 3.39445C16.4551 3.41608 16.5156 3.42041 16.8487 3.53287C17.3288 3.69291 17.7052 3.92216 18.0598 4.27685C18.4145 4.63154 18.6438 5.00786 18.8038 5.48799C18.9163 5.82105 18.9206 5.88161 18.9422 7.09275L18.9682 8.35147L19.085 8.50286C19.3921 8.90945 20.0106 8.85755 20.2485 8.4077C20.3221 8.27361 20.3307 8.14384 20.3307 7.14898C20.3307 6.34876 20.3134 5.93352 20.2658 5.66101C19.9414 3.80537 18.5313 2.39526 16.6757 2.07085C16.1263 1.97569 14.1366 1.97569 13.9506 2.07518Z" fill="#A0A3BD"/>
<path d="M1.86087 10.3585C1.80031 10.3844 1.70515 10.445 1.65324 10.4969C1.31585 10.8083 1.35911 11.2971 1.74408 11.5826L1.86519 11.6734H11.3337H20.8022L20.9233 11.5826C21.3472 11.2668 21.3472 10.7391 20.9233 10.4234L20.8022 10.3325L11.3856 10.3239C5.18717 10.3196 1.93007 10.3325 1.86087 10.3585Z" fill="#A0A3BD"/>
<path d="M2.74327 13.2912C2.64378 13.3344 2.51834 13.4382 2.46211 13.5161C2.3583 13.6632 2.3583 13.6805 2.34532 14.8008C2.33234 16.0119 2.37127 16.4315 2.55727 16.9851C2.98982 18.2958 4.03659 19.3382 5.35154 19.7794C5.87492 19.9567 6.30747 20 7.47968 20C8.47454 20 8.60431 19.9913 8.7384 19.9178C9.18825 19.6799 9.24015 19.0614 8.83356 18.7543L8.68217 18.6375L7.42345 18.6115C6.21231 18.5899 6.15175 18.5856 5.81869 18.4731C5.33856 18.3131 4.96224 18.0838 4.60755 17.7291C4.25286 17.3744 4.02361 16.9981 3.86357 16.518C3.75111 16.1849 3.74678 16.1244 3.72515 14.9392C3.69487 13.5291 3.68622 13.4858 3.33153 13.3041C3.10228 13.1874 2.97684 13.1874 2.74327 13.2912Z" fill="#A0A3BD"/>
<path d="M19.3532 13.2912C19.2537 13.3344 19.1282 13.4382 19.072 13.5161C18.9682 13.6632 18.9682 13.6805 18.9422 14.9175C18.9206 16.1244 18.9163 16.1849 18.8038 16.518C18.6438 16.9981 18.4145 17.3744 18.0598 17.7291C17.7051 18.0838 17.3288 18.3131 16.8487 18.4731C16.5156 18.5856 16.4551 18.5899 15.2439 18.6115L13.9852 18.6375L13.8338 18.7543C13.4272 19.0657 13.4791 19.6842 13.9247 19.9135C14.0847 19.9957 14.1755 20 15.1964 20C16.667 20 17.1212 19.9221 17.9257 19.5199C18.9379 19.0138 19.7425 18.0838 20.1101 16.9851C20.2875 16.4617 20.3307 16.0335 20.3307 14.857C20.3307 13.7929 20.3264 13.741 20.2312 13.5766C20.1274 13.3906 19.8333 13.209 19.6386 13.209C19.5781 13.209 19.4526 13.2479 19.3532 13.2912Z" fill="#A0A3BD"/>
</svg>
