<svg width="10" height="10" viewBox="0 0 10 10" fill="none" xmlns="http://www.w3.org/2000/svg">
<path d="M4.53861 1.52199C4.7097 1.11214 5.29034 1.11214 5.46143 1.52199L6.16433 3.20578C6.2327 3.36958 6.38279 3.48484 6.55868 3.50865L8.44174 3.76351C8.87519 3.82218 9.02968 4.36984 8.6908 4.64638L7.24918 5.82279C7.10153 5.94328 7.03521 6.13723 7.07817 6.3229L7.5383 8.31125C7.64169 8.75802 7.13929 9.09668 6.76393 8.83323L5.28726 7.79682C5.11488 7.67583 4.88516 7.67583 4.71278 7.79682L3.23608 8.83325C2.86073 9.0967 2.35833 8.75805 2.46171 8.31127L2.92181 6.32289C2.96477 6.13722 2.89845 5.94328 2.75081 5.82279L1.30922 4.64638C0.970338 4.36983 1.12484 3.82218 1.55828 3.76352L3.44136 3.50865C3.61725 3.48484 3.76734 3.36958 3.83571 3.20578L4.53861 1.52199Z" fill="white"/>
</svg>
