<svg width="23" height="22" viewBox="0 0 23 22" fill="none" xmlns="http://www.w3.org/2000/svg">
<path d="M8.8893 2.03981C8.22367 2.11698 7.57733 2.34368 6.94064 2.71026C6.52582 2.95144 5.69619 3.72319 5.4309 4.11871C4.99197 4.7747 4.68327 5.62362 4.59645 6.42914C4.42762 7.98228 5.11738 9.65119 6.33771 10.6496C8.31532 12.2703 11.1419 12.1256 12.9217 10.3168C14.4314 8.7878 14.7691 6.55937 13.7851 4.64446C13.0471 3.20226 11.6194 2.22792 9.9794 2.03981C9.49706 1.98675 9.35718 1.98675 8.8893 2.03981ZM10.2833 3.66048C10.6692 3.75695 11.2866 4.07047 11.576 4.31647C12.0872 4.7554 12.4152 5.23292 12.6371 5.87444C12.7577 6.22173 12.7722 6.32302 12.7722 6.88736C12.7722 7.43723 12.7529 7.56264 12.6419 7.90028C12.4635 8.43568 12.2078 8.8505 11.8075 9.24602C11.412 9.64637 10.9971 9.90201 10.4617 10.0805C10.1289 10.1914 9.98905 10.2107 9.47294 10.2107C8.93272 10.2155 8.8266 10.2011 8.44073 10.0757C7.36028 9.71872 6.49688 8.79262 6.20747 7.68323C6.10136 7.27324 6.10136 6.50631 6.20747 6.09149C6.54029 4.80364 7.6545 3.79071 8.96648 3.58813C9.31859 3.53025 9.91187 3.56401 10.2833 3.66048Z" fill="#A0A3BD"/>
<path d="M14.7884 2.1218C14.4604 2.28097 14.2964 2.61379 14.3639 2.98037C14.4121 3.22637 14.7064 3.51577 14.9475 3.55918C15.8206 3.70389 16.3849 3.98365 16.9251 4.52387C17.3544 4.95316 17.5763 5.2908 17.7499 5.79244C18.2034 7.10441 17.8368 8.47427 16.766 9.44378C16.5055 9.6753 16.4187 9.8393 16.4187 10.0949C16.4187 10.3506 16.5344 10.6014 16.7177 10.7316C16.8721 10.8378 17.2049 10.8956 17.4027 10.8474C17.5956 10.7992 18.0683 10.3795 18.4156 9.94059C19.5973 8.46944 19.8144 6.40984 18.9703 4.72163C18.705 4.18623 18.4252 3.81483 17.9525 3.36142C17.2869 2.72473 16.4862 2.30027 15.5842 2.10733C15.1646 2.02051 14.9861 2.02533 14.7884 2.1218Z" fill="#A0A3BD"/>
<path d="M5.54183 12.3475C3.91633 12.7092 2.58024 14.0164 2.13649 15.666C1.99178 16.2207 1.9532 17.4459 2.06413 18.0054C2.20884 18.7048 2.53683 19.3511 2.94682 19.7515C3.48705 20.2724 4.30703 19.9155 4.24915 19.1823C4.23468 18.9749 4.19127 18.8832 4.00798 18.6372C3.66069 18.1742 3.57387 17.8993 3.54975 17.1757C3.52564 16.4329 3.60763 15.9844 3.8681 15.4489C4.24915 14.6531 5.23796 13.9151 5.98077 13.8669C6.26052 13.8476 6.31841 13.862 6.73322 14.0598C8.54201 14.9328 10.5196 14.9087 12.3188 14.0019C12.666 13.8283 12.9458 13.8138 13.3703 13.9585C14.0504 14.1852 14.7015 14.764 15.0199 15.42C15.2948 15.9795 15.3575 16.2786 15.3575 17.0214C15.3575 17.8028 15.2659 18.1453 14.9427 18.5842C14.6051 19.0472 14.5665 19.2257 14.7257 19.5778C14.8945 19.9492 15.4058 20.1132 15.782 19.9155C16.1245 19.737 16.6936 18.7675 16.8287 18.126C16.9348 17.6243 16.9251 16.4088 16.8094 15.8589C16.5923 14.8026 15.9749 13.8186 15.1164 13.1723C14.7305 12.8781 13.9443 12.4922 13.5198 12.3909C13.1243 12.2944 12.5648 12.2944 12.2078 12.3861C12.0583 12.4247 11.7641 12.5404 11.5615 12.6417C10.8283 13.0083 10.2302 13.1482 9.4247 13.1433C8.62883 13.1385 8.02108 12.989 7.2638 12.6079C7.0998 12.5259 6.83934 12.4247 6.68981 12.3861C6.43417 12.3185 5.76371 12.2944 5.54183 12.3475Z" fill="#A0A3BD"/>
<path d="M18.0779 12.4295C17.7741 12.5645 17.5763 12.9794 17.668 13.3122C17.7403 13.5726 17.9863 13.7993 18.2998 13.891C18.8208 14.0405 19.2163 14.2817 19.6263 14.6965C20.3064 15.3814 20.5524 16.0808 20.509 17.2047C20.48 17.8993 20.3884 18.1887 20.0459 18.6421C19.8337 18.9267 19.8192 18.9604 19.8192 19.2402C19.8192 19.5827 19.9109 19.7466 20.181 19.9058C20.3932 20.0312 20.7453 20.0312 20.9431 19.9058C21.2904 19.6888 21.7679 18.9025 21.9512 18.2466C22.0235 17.9909 22.038 17.7594 22.038 17.0166C22.0332 16.2207 22.0187 16.0471 21.9222 15.6901C21.5171 14.1708 20.4463 13.0035 19.004 12.5018C18.5748 12.3523 18.3095 12.3282 18.0779 12.4295Z" fill="#A0A3BD"/>
</svg>
